<svg xmlns="http://www.w3.org/2000/svg" width="512" height="512" viewBox="0 0 512 512">
  <defs>
    <linearGradient id="bg" x1="0" y1="0" x2="1" y2="1">
      <stop offset="0" stop-color="#0B1220"/>
      <stop offset="1" stop-color="#111A2E"/>
    </linearGradient>
    <linearGradient id="lens" x1="0" y1="0" x2="1" y2="1">
      <stop offset="0" stop-color="#4A90E2"/>
      <stop offset="1" stop-color="#7FB3FF"/>
    </linearGradient>
    <radialGradient id="shine" cx="30%" cy="25%" r="65%">
      <stop offset="0" stop-color="#FFFFFF" stop-opacity="0.35"/>
      <stop offset="0.55" stop-color="#FFFFFF" stop-opacity="0.06"/>
      <stop offset="1" stop-color="#FFFFFF" stop-opacity="0"/>
    </radialGradient>
  </defs>

  <rect x="32" y="32" width="448" height="448" rx="112" fill="url(#bg)"/>

  <!-- Lens ring -->
  <circle cx="256" cy="252" r="132" fill="none" stroke="url(#lens)" stroke-width="22"/>
  <circle cx="256" cy="252" r="104" fill="#0E1730"/>
  <circle cx="256" cy="252" r="104" fill="url(#shine)"/>

  <!-- Handle -->
  <g transform="translate(0 0)">
    <rect x="334" y="332" width="120" height="28" rx="14" fill="url(#lens)" transform="rotate(45 334 332)"/>
    <rect x="350" y="350" width="92" height="16" rx="8" fill="#0B1220" opacity="0.35" transform="rotate(45 350 350)"/>
  </g>

  <!-- Monogram M -->
  <path d="M198 316V190c0-6.6 5.4-12 12-12h10.6c4.2 0 8.1 2.2 10.2 5.8l25.2 43.7c1.6 2.8 5.6 2.8 7.2 0l25.2-43.7c2.1-3.6 6-5.8 10.2-5.8H309c6.6 0 12 5.4 12 12v126c0 6.6-5.4 12-12 12h-12c-6.6 0-12-5.4-12-12V245c0-2.7-3.6-3.6-4.9-1.2l-18.2 31.4c-2.1 3.6-6 5.8-10.2 5.8h-11.3c-4.2 0-8.1-2.2-10.2-5.8l-18.2-31.4c-1.3-2.4-4.9-1.5-4.9 1.2v83c0 6.6-5.4 12-12 12h-12c-6.6 0-12-5.4-12-12z" fill="#FFFFFF" opacity="0.92"/>
</svg>
